<svg version="1" xmlns="http://www.w3.org/2000/svg" width="682.667" height="682.667" viewBox="0 0 512.000000 512.000000"><path d="M365.9 133.4c-.2.2-3.8.7-7.9 1.1-4.1.4-7.7.8-8 1-.3.1-3.2.6-6.5 1-16.7 1.9-49.3 12.3-65.5 20.8-15.6 8.2-20.7 13.7-21.4 22.9-.7 9.4 2.6 14 9.9 14 3.9 0 7.4-1.3 19.9-7.6 17.4-8.7 27.4-12.5 43.6-16.6 17.3-4.4 31.6-6.2 50.5-6.4 42.6-.4 65.1 12.4 63.3 35.9-1.3 15.4-15.1 28.3-36.8 34.3-9.7 2.7-16 3.7-29.5 4.7-11.1.9-15.3 5.2-16 16.5-.4 7.5 2.3 10.9 9.4 11.6 2 .1 6.1.5 9.1.8 22.3 2.1 35.1 12.8 34.6 29-.3 7.7-3 13.9-8.8 19.7-7.3 7.5-20.2 13.6-32.5 15.3-13.4 2-18.3 2.3-31.3 2.1-22.1-.3-20.8 0-20.5-3.3.4-3.8 2.5-22.2 3-25.2.2-1.4.7-4.5 1-7 1.8-13.4 10-55.3 12.4-64 .6-1.9 1.2-4.6 1.5-6 .2-1.4 1.8-7 3.5-12.6 4.8-15.9 4.9-17.8 1.4-21.2-2.2-2.2-4.1-3.1-8.3-3.5-9.9-1.2-19 .5-23.4 4.2-3 2.6-4.3 6-8.1 21.2-2 7.9-4.1 16.2-4.7 18.4-.6 2.2-1.2 4.9-1.4 6-.2 1.1-1.9 9.6-3.8 19-1.9 9.3-3.7 18.8-4 21-.4 2.3-.8 5-1 6-.7 3.6-1.8 10.5-2.1 12.8-.1 1.2-.6 4.9-1 8.1l-.8 6-1.1-3.4c-.6-1.9-2.3-4.1-3.7-4.9-3.9-2.2-7.3-.3-15.4 8.7-11.6 13-18.4 17.7-27.4 19.1-8.6 1.4-17.3-2.7-23.2-10.7-1.3-1.8-2.9-3.9-3.5-4.5-.5-.7-3.9-6.8-7.4-13.7-11.7-23.2-18.6-30.8-31-34.5l-3.5-1.1 9-3.2c33-11.9 53.2-37.2 53.6-67.2.2-19.5-7.8-36.1-22.3-46.2-15.2-10.7-32.4-14.9-57.8-14.3-8 .2-15.6.5-17 .8-1.4.2-4.3.8-6.5 1.2-13.7 2.4-30.6 9.2-42.5 17.1-9 5.9-23 19.6-29.2 28.4-13.2 18.9-22.6 44.5-25.3 69-.4 3.6-.9 7.8-1.1 9.5-.6 5.1-.6 28.8 0 32.5.3 1.9.8 5.5 1 8 .6 4.6 3.4 15 5.6 20.5 7.1 18.2 19.8 31.9 34.5 37.4 16.8 6.3 35.8 3.7 44-6.1 6.3-7.5 8.7-15.2 13-41.6.3-1.7.7-4.7 1-6.5.3-1.7 1.2-6.8 2-11.2.8-4.4 1.7-9.8 2.1-12 .3-2.2.8-4.2 1-4.4.2-.2 2.4.2 5 .9 2.9.9 6.2 2.8 8.8 5.4 5.8 5.6 7.5 8.5 19.2 31.7 15.2 30.1 24.4 40.3 41.4 45.3 6.5 2 20.1 2.2 28 .5 14.6-3.1 31.3-15.1 43.5-31.3l3.7-5-.5 3.5c-1.2 7.9-2.1 20-2.2 28.9 0 8 .3 9.9 2 12.2 3.8 5.2 15.2 6.7 25.3 3.4 5-1.7 10.1-6.2 10.3-9.2.1-.8.2-1.8.3-2.4 0-.5 10.1-1.1 24.6-1.4 13.5-.2 26.3-.7 28.5-1.1 19.9-3.1 37.9-8.7 50.1-15.6 36.7-20.8 43.2-67 11.9-85-2.7-1.6-6.8-3.4-9-4l-4-1.1 9.5-3.3c17.6-5.9 26.5-11 35.6-19.9 12.2-12.2 17.7-25.8 16.9-42.1-.5-11.2-2.3-17-7.9-25.7-9.9-15.6-29.3-25.7-58.3-30.4-4.2-.6-50.8-1.6-51.4-1zm-200.7 35.2c6.6 1.8 14.8 6.5 18.5 10.5 1.2 1.3 3.4 4.8 4.9 7.8 2.2 4.6 2.7 6.8 2.8 14.5.2 13.1-1.4 18.5-8.1 28.1-5.8 8.1-17.6 16.6-26.8 19-1.6.5-3.4.9-4 1.1-3.9 1.2-11.7 2-12.1 1.3-.5-.8.4-8.7 1.1-9.9.1-.3.6-2.8 1-5.5.3-2.8 1.6-9.7 2.7-15.5 2.7-13.6 2.8-23.3.2-26.1-3.1-3.4-6.9-4.9-12.6-4.9-7 0-12.1 1.5-15.8 4.7-4.6 3.8-6.3 7.9-8.4 19.8-.3 1.6-1.6 8.8-3 16-1.3 7.1-2.7 15-3 17.5l-.7 4.5-5.5.2c-9.3.5-14.7 5.5-14.7 13.7 0 7.2 5.1 13.6 11 13.6 3.9 0 4.6 1.4 3.4 7.1-.6 3-1.3 7-1.6 8.9-.7 4.3-4.3 23.6-4.9 26.9-2.1 9.6-5.6 13.5-10.9 12C72 332 65.8 322 61.8 306.7c-1.8-6.8-2.2-11.2-2.2-26.2-.1-20.9.6-28.1 4-42.5 7.7-32.1 24.8-54.6 49.2-65 7.4-3.1 13.9-4.9 21.2-5.7 2.5-.3 4.6-.6 4.8-.7.9-1 21.3.6 26.4 2z"/></svg>