<?xml version="1.0" standalone="no"?>
<!DOCTYPE svg PUBLIC "-//W3C//DTD SVG 20010904//EN"
 "http://www.w3.org/TR/2001/REC-SVG-20010904/DTD/svg10.dtd">
<svg version="1.0" xmlns="http://www.w3.org/2000/svg"
 width="1024.000000pt" height="1024.000000pt" viewBox="0 0 1024.000000 1024.000000"
 preserveAspectRatio="xMidYMid meet">
<metadata>
Created by potrace 1.11, written by Peter Selinger 2001-2013
</metadata>
<g transform="translate(0.000000,1024.000000) scale(0.100000,-0.100000)"
fill="#000000" stroke="none">
<path d="M829 8155 c-199 -37 -370 -127 -522 -274 -138 -133 -230 -294 -280
-488 l-22 -88 0 -2185 0 -2185 22 -88 c95 -373 361 -642 741 -750 76 -22 86
-22 812 -22 l735 0 96 27 c129 35 251 95 355 173 l85 65 60 -49 c131 -105 290
-176 466 -206 79 -14 191 -15 825 -12 649 3 740 5 795 20 59 16 67 16 126 0
56 -16 173 -18 1312 -21 1262 -3 1430 0 1700 34 942 117 1626 564 1935 1264
260 587 211 1361 -119 1890 l-53 85 36 106 c129 381 137 841 21 1222 -89 295
-231 538 -445 760 -367 383 -846 608 -1480 697 -273 38 -430 42 -1660 38
l-1185 -3 -95 -26 c-194 -54 -329 -134 -471 -279 l-97 -99 -124 64 c-329 170
-636 262 -1078 322 -165 23 -2373 29 -2491 8z m2456 -1009 c327 -54 599 -155
825 -309 100 -68 282 -252 348 -352 173 -261 256 -575 239 -910 -20 -387 -148
-686 -399 -934 -105 -104 -188 -164 -386 -278 -12 -7 253 -403 795 -1185 l74
-108 -623 0 -623 0 -370 543 -370 542 -317 3 -318 2 0 -545 0 -545 -580 0
-580 0 0 2050 0 2051 1088 -4 c988 -3 1097 -5 1197 -21z m4585 1 c421 -64 691
-180 896 -382 112 -110 187 -229 230 -365 62 -193 56 -450 -15 -650 -70 -198
-244 -404 -428 -506 -52 -28 -66 -44 -40 -44 22 0 214 -97 279 -141 78 -53
195 -165 255 -244 184 -245 243 -621 147 -945 -114 -386 -495 -658 -1057 -754
-254 -44 -338 -46 -1598 -46 l-1199 0 0 2050 0 2051 1213 -4 c1053 -3 1226 -6
1317 -20z"/>
<path d="M2160 5659 l0 -600 428 3 c401 4 432 5 505 26 223 62 375 211 416
410 16 77 14 257 -4 327 -52 202 -187 334 -407 395 -104 29 -267 40 -625 40
l-313 0 0 -601z"/>
<path d="M6490 5935 l0 -395 393 0 c215 0 444 5 507 10 244 21 382 92 444 231
23 50 28 75 28 147 1 104 -11 154 -55 219 -56 84 -165 141 -322 169 -61 11
-188 14 -537 14 l-458 0 0 -395z"/>
<path d="M6490 4325 l0 -415 543 0 c421 0 561 3 627 14 280 47 403 169 403
401 0 245 -151 374 -474 404 -63 6 -335 11 -606 11 l-493 0 0 -415z"/>
</g>
</svg>
